<svg width="25" height="25" viewBox="0 0 25 25" fill="none" xmlns="http://www.w3.org/2000/svg">
<g clip-path="url(#clip0_201_204)">
<path fill-rule="evenodd" clip-rule="evenodd" d="M11.7081 0.0234236C11.6284 0.0327986 11.3565 0.0609236 11.105 0.0859236C8.1784 0.378111 5.22997 1.88749 3.23622 4.11561C1.03153 6.57967 -0.0887827 9.63749 0.0143423 12.8953C0.19403 18.5219 4.06122 23.2859 9.54716 24.6422C12.7643 25.4375 16.3018 24.8703 19.105 23.1109C21.9018 21.3531 23.8597 18.6453 24.6425 15.4484C24.9112 14.3531 24.9737 13.7953 24.9737 12.5C24.9737 11.2047 24.9112 10.6469 24.6425 9.55155C23.405 4.49686 19.2425 0.778111 14.0628 0.0999861C13.619 0.0421736 12.005 -0.00938889 11.7081 0.0234236ZM13.8331 2.44217C15.5737 2.66717 17.2034 3.33749 18.6628 4.42811C19.1768 4.81249 20.1878 5.82342 20.5722 6.33749C21.4487 7.51092 22.0972 8.89061 22.3909 10.2109C22.7253 11.7187 22.7253 13.2812 22.3909 14.789C21.744 17.6969 19.6956 20.2781 16.98 21.6062C15.9987 22.0859 14.9862 22.4 13.8753 22.5687C13.2128 22.6703 11.7878 22.6703 11.1253 22.5687C8.08153 22.1062 5.51278 20.4453 3.89559 17.8922C3.56122 17.3656 3.12372 16.4469 2.90497 15.8109C2.5284 14.7219 2.3659 13.7203 2.3659 12.5C2.3659 10.8765 2.67997 9.49217 3.37528 8.06249C3.90653 6.97186 4.44716 6.21874 5.33309 5.3328C6.21903 4.44686 6.97215 3.90624 8.06278 3.37499C9.86434 2.49842 11.8237 2.1828 13.8331 2.44217ZM12.0409 6.70311C11.6909 6.81717 11.4925 7.01717 11.3956 7.35155C11.3393 7.54217 11.3331 7.97811 11.3425 10.65C11.355 13.7281 11.355 13.7297 11.4456 13.9C11.5597 14.114 11.7784 14.3078 11.9862 14.3812C12.1925 14.4531 12.8081 14.4531 13.0143 14.3812C13.2222 14.3078 13.4409 14.114 13.555 13.9C13.6456 13.7297 13.6456 13.7281 13.6581 10.65C13.6706 7.28749 13.6706 7.28436 13.4315 7.00155C13.2378 6.7703 13.03 6.69374 12.5628 6.68124C12.3331 6.67499 12.0987 6.68436 12.0409 6.70311ZM12.1659 16.4531C11.8706 16.55 11.5784 16.8015 11.4362 17.0812C11.3268 17.3 11.3081 17.6953 11.3972 17.9609C11.544 18.4062 12.0268 18.75 12.5003 18.75C12.9737 18.75 13.4565 18.4062 13.6034 17.9609C13.6925 17.6953 13.6737 17.3 13.5643 17.0812C13.4628 16.8812 13.219 16.6344 13.0206 16.5312C12.8393 16.4375 12.3503 16.3922 12.1659 16.4531Z" fill="#FFCC00"/>
</g>
<defs>
<clipPath id="clip0_201_204">
<rect width="25" height="25" fill="white"/>
</clipPath>
</defs>
</svg>
