<svg width="16" height="15" viewBox="0 0 16 15" fill="none" xmlns="http://www.w3.org/2000/svg">
<g filter="url(#filter0_f_201_68)">
<path d="M2.4 3.81509C1.76348 3.81509 1.15303 4.05211 0.702944 4.474C0.252856 4.89589 0 5.46809 0 6.06473V8.93377C0.00205037 9.39739 0.156867 9.84909 0.44327 10.2271C0.729673 10.6051 1.13367 10.8909 1.6 11.0454V14.2482C1.6 14.447 1.68429 14.6378 1.83431 14.7784C1.98434 14.919 2.18783 14.998 2.4 14.998H5.6C5.81217 14.998 6.01565 14.919 6.16568 14.7784C6.31571 14.6378 6.4 14.447 6.4 14.2482V11.5658L14.8872 14.9403C15.009 14.9888 15.1418 15.0082 15.2735 14.9968C15.4053 14.9854 15.532 14.9435 15.6423 14.875C15.7526 14.8064 15.843 14.7132 15.9054 14.6038C15.9678 14.4944 16.0003 14.3722 16 14.2482V0.750336C16.0001 0.626407 15.9674 0.504391 15.9049 0.3952C15.8423 0.28601 15.7519 0.193049 15.6417 0.124631C15.5314 0.0562137 15.4048 0.0144729 15.2731 0.00314141C15.1415 -0.00819007 15.0089 0.0112412 14.8872 0.0596976L5.44 3.81509H2.4ZM4.8 13.4983H3.2V11.1834H4.8V13.4983ZM4.8 9.68365H2.4C2.18783 9.68365 1.98434 9.60464 1.83431 9.46401C1.68429 9.32338 1.6 9.13265 1.6 8.93377V6.06473C1.6 5.86585 1.68429 5.67512 1.83431 5.53449C1.98434 5.39386 2.18783 5.31485 2.4 5.31485H4.8V9.68365ZM6.4 5.06139L14.4 1.88265V13.1158L6.4 9.93711V5.06139Z" fill="white"/>
</g>
<defs>
<filter id="filter0_f_201_68" x="-4" y="-4" width="24" height="23" filterUnits="userSpaceOnUse" color-interpolation-filters="sRGB">
<feFlood flood-opacity="0" result="BackgroundImageFix"/>
<feBlend mode="normal" in="SourceGraphic" in2="BackgroundImageFix" result="shape"/>
<feGaussianBlur stdDeviation="2" result="effect1_foregroundBlur_201_68"/>
</filter>
</defs>
</svg>
